<?xml version="1.0" encoding="utf-8"?>
<!-- Svg Vector Icons : http://www.onlinewebfonts.com/icon -->
<!DOCTYPE svg PUBLIC "-//W3C//DTD SVG 1.1//EN" "http://www.w3.org/Graphics/SVG/1.1/DTD/svg11.dtd">
<svg version="1.1" xmlns="http://www.w3.org/2000/svg" xmlns:xlink="http://www.w3.org/1999/xlink" x="0px" y="0px" viewBox="0 0 1000 1000" enable-background="new 0 0 1000 1000" xml:space="preserve">
<metadata> Svg Vector Icons : http://www.onlinewebfonts.com/icon </metadata>
<g><g><g><g><path d="M492.2,990c-2.8,0-1.6-0.4-4.4-1.2c-16.4-4.9-397.3-122.7-397.3-370.3V200.2c0-16.1,9.1-29.2,25.3-29.2c72.8,0,130.8-59.3,131.9-132.1C248,22.9,259,10,275,10h434c16,0,29,12.9,29.2,28.9c1.1,72.8,65.1,132,137.9,132c16.1,0,33.2,13.1,33.2,29.3v418.5c0,216.9-386.6,363.4-402.9,369.5C503.2,989.4,495.7,990,492.2,990z M149.1,227.2v391.3c0,185.8,293.8,292.5,350.2,311.3c106.3-42,351.6-169,351.6-311.1V227.2c-87.7-12.6-154.9-71-168.5-158.7H301.6C288,156.2,222.2,214.6,149.1,227.2z"/></g><g><g><path d="M348.5,810.4c-2.2,0-4.4-0.5-6.5-1.5c-56.2-28.3-99.7-68.3-125.8-116c-3.9-7.1-1.3-16,5.8-19.8c7.1-3.9,16-1.3,19.8,5.8c23.2,42.4,62.4,78.3,113.3,103.9c7.2,3.6,10.1,12.4,6.5,19.6C359,807.5,353.9,810.4,348.5,810.4z"/></g><g><path d="M203.5,638.6c-6.4,0-12.3-4.2-14.1-10.7c-2.6-9.4-3.7-14.9-3.7-14.9c-1.5-7.9,3.8-15.5,11.7-17c7.9-1.4,15.5,3.7,17,11.7c0.1,0.3,0.9,4.9,3.1,12.4c2.2,7.8-2.3,15.9-10.1,18C206.2,638.5,204.8,638.6,203.5,638.6z"/></g></g><g><path d="M485.4,960.5c-8.1,0-14.6-6.5-14.6-14.6V39.4c0-8.1,6.5-14.6,14.6-14.6c8.1,0,14.6,6.5,14.6,14.6v906.5C500,953.9,493.4,960.5,485.4,960.5z"/></g><g><path d="M872.2,507.1H111.9c-8.1,0-14.6-6.5-14.6-14.6c0-8.1,6.5-14.6,14.6-14.6h760.3c8.1,0,14.6,6.5,14.6,14.6C886.8,500.6,880.2,507.1,872.2,507.1z"/></g></g></g><g></g><g></g><g></g><g></g><g></g><g></g><g></g><g></g><g></g><g></g><g></g><g></g><g></g><g></g><g></g></g>
</svg>