<svg id="euXyOW8Tzco1" xmlns="http://www.w3.org/2000/svg" xmlns:xlink="http://www.w3.org/1999/xlink" viewBox="0 0 120 180" shape-rendering="geometricPrecision" text-rendering="geometricPrecision"><g id="euXyOW8Tzco2" transform="matrix(1 0 0 1 -33.460358 -5.451845)"><ellipse id="euXyOW8Tzco3" rx="48.429549" ry="45.060537" transform="matrix(1 0 0 1 95.988358 133.138472)" fill="rgb(210,219,237)" stroke="none" stroke-width="0"/><path id="euXyOW8Tzco4" d="" transform="matrix(1 0 0 1 -234.960931 -2.043139)" fill="none" stroke="rgb(63,87,135)" stroke-width="1.28"/><path id="euXyOW8Tzco5" d="M282.03878,132.93174C282.03878,117.19471,270.57171,104.71244,271.66296,88.34376C272.62893,73.85427,289.18422,64.7041,283.16049,49.64476" transform="matrix(1 0 0 1 -234.960931 -2.043139)" fill="none" stroke="rgb(63,87,135)" stroke-width="3"/><path id="euXyOW8Tzco6" d="M378.80422,133.35257C382.988,124.985,387.79095,111.08175,382.14794,102.30373C378.28385,96.29293,371.27973,92.37751,370.68376,84.62978C369.79035,73.0154,381.78859,65.16784,385.25283,54.77513" transform="matrix(1 0 0 1 -234.960931 -2.043139)" fill="none" stroke="rgb(63,87,135)" stroke-width="3"/><path id="euXyOW8Tzco7" d="M316.6529,60.54714C319.2079,56.2888,329.39215,39.31126,330.44787,35.44029C332.52483,27.82476,327.01695,20.80336,334.58636,14.74783" transform="matrix(1 0 0 1 -234.960931 -2.043139)" fill="none" stroke="rgb(63,87,135)" stroke-width="3"/><path id="euXyOW8Tzco8" d="M334.31046,16.95502C337.42234,18.51096,342.56584,20.62566,343.96694,24.12841C349.58652,38.17736,335.96651,51.2596,350.31263,75.16981" transform="matrix(1 0 0 1 -234.960931 -2.043139)" fill="none" stroke="rgb(63,87,135)" stroke-width="3"/><path id="euXyOW8Tzco9" d="M284.37266,50.61476C301.93236,68.17446,291.39531,78.30484,306.44462,90.34428" transform="matrix(1 0 0 1 -234.960931 -2.043139)" fill="none" stroke="rgb(63,87,135)" stroke-width="3"/><path id="euXyOW8Tzco10" d="M292.64964,59.44354C306.99509,53.06778,305.34102,36.96415,305.34102,23.85251" transform="matrix(1 0 0 1 -234.960931 -2.043139)" fill="none" stroke="rgb(63,87,135)" stroke-width="3"/><path id="euXyOW8Tzco11" d="M318.30829,63.03023C310.31166,52.36806,314.64148,37.78986,307.27231,25.5079" transform="matrix(1 0 0 1 -234.960931 -2.043139)" fill="none" stroke="rgb(63,87,135)" stroke-width="3"/><path id="euXyOW8Tzco12" d="M342.58745,80.4119C362.01675,76.52603,360.40897,46.58821,372.93639,34.06079" transform="matrix(1 0 0 1 -234.960931 -2.043139)" fill="none" stroke="rgb(63,87,135)" stroke-width="3"/><g id="euXyOW8Tzco13" transform="matrix(1 0 0 1 0 0.000002)"><g id="euXyOW8Tzco14" transform="matrix(1 0 0 1 0 0.000001)"><path id="euXyOW8Tzco15" d="M384.80007,55.30505C382.44563,52.362,374.67305,38.54038,373.21229,34.88849" transform="matrix(1 0 0 1 -234.960931 -2.043139)" fill="none" stroke="rgb(63,87,135)" stroke-width="3"/></g></g></g></svg>